<mxfile host="app.diagrams.net" modified="2023-06-10T03:36:51.421Z" agent="Mozilla/5.0 (Windows NT 10.0; Win64; x64) AppleWebKit/537.36 (KHTML, like Gecko) Chrome/114.0.0.0 Safari/537.36 Edg/114.0.1823.43" version="21.1.1" etag="BJAMZubEuVvp6hwXvJbN" type="github">
  <diagram name="第 1 页" id="KKsY59eh9XaDmgX87wVV">
    <mxGraphModel>
      <root>
        <mxCell id="0" />
        <mxCell id="1" parent="0" />
      </root>
    </mxGraphModel>
  </diagram>
</mxfile>
